<?xml version="1.0" encoding="utf-8" standalone="no"?>
<!DOCTYPE svg PUBLIC "-//W3C//DTD SVG 1.1//EN"
  "http://www.w3.org/Graphics/SVG/1.1/DTD/svg11.dtd">
<!-- Created with matplotlib (https://matplotlib.org/) -->
<svg height="345.6pt" version="1.1" viewBox="0 0 460.8 345.6" width="460.8pt" xmlns="http://www.w3.org/2000/svg" xmlns:xlink="http://www.w3.org/1999/xlink">
 <defs>
  <style type="text/css">
*{stroke-linecap:butt;stroke-linejoin:round;}
  </style>
 </defs>
 <g id="figure_1">
  <g id="patch_1">
   <path d="M 0 345.6 
L 460.8 345.6 
L 460.8 0 
L 0 0 
z
" style="fill:#ffffff;"/>
  </g>
  <g id="axes_1">
   <g id="patch_2">
    <path d="M 67.440625 305.815625 
L 450 305.815625 
L 450 10.8 
L 67.440625 10.8 
z
" style="fill:#ffffff;"/>
   </g>
   <g id="matplotlib.axis_1">
    <g id="xtick_1">
     <g id="line2d_1">
      <path clip-path="url(#p1721447ff6)" d="M 163.080469 305.815625 
L 163.080469 10.8 
" style="fill:none;stroke:#b0b0b0;stroke-dasharray:2.96,1.28;stroke-dashoffset:0;stroke-width:0.8;"/>
     </g>
     <g id="line2d_2">
      <defs>
       <path d="M 0 0 
L 0 3.5 
" id="m231f4d0b46" style="stroke:#000000;stroke-width:0.8;"/>
      </defs>
      <g>
       <use style="stroke:#000000;stroke-width:0.8;" x="163.080469" xlink:href="#m231f4d0b46" y="305.815625"/>
      </g>
     </g>
     <g id="text_1">
      <!-- velocity 5 -->
      <defs>
       <path d="M 46.296875 45 
L 46.296875 43.5 
Q 44 43.296875 42.890625 42 
Q 41.796875 40.703125 39.796875 35.703125 
L 27 3.59375 
Q 25 -1.40625 24.203125 -1.40625 
Q 23.09375 -1.40625 21.59375 3.296875 
L 9.59375 32 
Q 6.40625 39.703125 4.90625 41.5 
Q 3.40625 43.296875 0.5 43.5 
L 0.5 45 
L 20.09375 45 
L 20.09375 43.5 
Q 17.5 43.296875 16.5 42.6875 
Q 15.5 42.09375 15.5 40.703125 
Q 15.5 39.09375 16.40625 37 
L 26.59375 11.40625 
L 36.5 37.296875 
Q 37.09375 38.796875 37.09375 40.296875 
Q 37.09375 43.09375 32.40625 43.5 
L 32.40625 45 
z
" id="FreeSerif-118"/>
       <path d="M 9.703125 27.703125 
Q 9.90625 21.40625 11.40625 16.84375 
Q 12.90625 12.296875 15.296875 10.046875 
Q 17.703125 7.796875 20.140625 6.84375 
Q 22.59375 5.90625 25.296875 5.90625 
Q 30.09375 5.90625 33.640625 8.296875 
Q 37.203125 10.703125 40.796875 16.40625 
L 42.40625 15.703125 
Q 39.296875 7.59375 33.796875 3.296875 
Q 28.296875 -1 21.203125 -1 
Q 12.59375 -1 7.546875 5.046875 
Q 2.5 11.09375 2.5 21.40625 
Q 2.5 32.5 8.34375 39.25 
Q 14.203125 46 23.40625 46 
Q 31 46 35.203125 41.453125 
Q 39.40625 36.90625 40.5 27.703125 
z
M 9.90625 30.90625 
L 30.296875 30.90625 
Q 29.296875 37.40625 27.1875 39.90625 
Q 25.09375 42.40625 20.5 42.40625 
Q 11.5 42.40625 9.90625 30.90625 
z
" id="FreeSerif-101"/>
       <path d="M 1 62.296875 
L 1 63.90625 
Q 10.90625 66.296875 16.90625 68.296875 
L 17.296875 68.09375 
L 17.296875 8.40625 
Q 17.296875 4.296875 18.640625 3.046875 
Q 20 1.796875 24.796875 1.5 
L 24.796875 0 
L 1.203125 0 
L 1.203125 1.5 
Q 5.90625 1.90625 7.40625 3.296875 
Q 8.90625 4.703125 8.90625 8.703125 
L 8.90625 56.40625 
Q 8.90625 59.90625 8 61.203125 
Q 7.09375 62.5 4.703125 62.5 
Q 2.703125 62.5 1 62.296875 
z
" id="FreeSerif-108"/>
       <path d="M 24.59375 46 
Q 34.203125 46 40.390625 39.59375 
Q 46.59375 33.203125 46.59375 23.40625 
Q 46.59375 13 40.1875 6 
Q 33.796875 -1 24.390625 -1 
Q 15 -1 8.75 5.75 
Q 2.5 12.5 2.5 22.59375 
Q 2.5 32.90625 8.640625 39.453125 
Q 14.796875 46 24.59375 46 
z
M 11.5 27.5 
Q 11.5 16.796875 15.390625 9.296875 
Q 19.296875 1.796875 25.59375 1.796875 
Q 31.203125 1.796875 34.390625 6.59375 
Q 37.59375 11.40625 37.59375 19.90625 
Q 37.59375 30.203125 33.59375 36.703125 
Q 29.59375 43.203125 23.296875 43.203125 
Q 18 43.203125 14.75 38.890625 
Q 11.5 34.59375 11.5 27.5 
z
" id="FreeSerif-111"/>
       <path d="M 2.5 21.296875 
Q 2.5 32.40625 9.046875 39.203125 
Q 15.59375 46 24.40625 46 
Q 30.703125 46 35.25 42.953125 
Q 39.796875 39.90625 39.796875 35.703125 
Q 39.796875 34 38.390625 32.75 
Q 37 31.5 35 31.5 
Q 31.59375 31.5 30.296875 36.09375 
L 29.703125 38.296875 
Q 28.90625 41.09375 27.703125 42.09375 
Q 26.5 43.09375 23.796875 43.09375 
Q 17.703125 43.09375 13.953125 38.25 
Q 10.203125 33.40625 10.203125 25.703125 
Q 10.203125 17.09375 14.546875 11.640625 
Q 18.90625 6.203125 25.703125 6.203125 
Q 30 6.203125 33.09375 8.25 
Q 36.203125 10.296875 39.796875 15.59375 
L 41.203125 14.703125 
Q 40.203125 12.703125 39.453125 11.390625 
Q 38.703125 10.09375 36.75 7.5 
Q 34.796875 4.90625 32.890625 3.296875 
Q 31 1.703125 27.890625 0.34375 
Q 24.796875 -1 21.5 -1 
Q 13.203125 -1 7.84375 5.25 
Q 2.5 11.5 2.5 21.296875 
z
" id="FreeSerif-99"/>
       <path d="M 6.203125 39.296875 
Q 4 39.296875 2 39 
L 2 40.5 
Q 9 42.5 17.5 46 
L 17.90625 45.703125 
L 17.90625 10.203125 
Q 17.90625 4.796875 19.15625 3.34375 
Q 20.40625 1.90625 25.296875 1.5 
L 25.296875 0 
L 1.59375 0 
L 1.59375 1.5 
Q 6.796875 1.796875 8.140625 3.296875 
Q 9.5 4.796875 9.5 10.203125 
L 9.5 33.40625 
Q 9.5 36.703125 8.75 38 
Q 8 39.296875 6.203125 39.296875 
z
M 12.796875 68.296875 
Q 15 68.296875 16.5 66.796875 
Q 18 65.296875 18 63.203125 
Q 18 61 16.5 59.546875 
Q 15 58.09375 12.796875 58.09375 
Q 10.703125 58.09375 9.25 59.59375 
Q 7.796875 61.09375 7.796875 63.1875 
Q 7.796875 65.296875 9.296875 66.796875 
Q 10.796875 68.296875 12.796875 68.296875 
z
" id="FreeSerif-105"/>
       <path d="M 25.90625 45 
L 25.90625 41.796875 
L 15.796875 41.796875 
L 15.796875 13.203125 
Q 15.796875 8.5 17 6.34375 
Q 18.203125 4.203125 21 4.203125 
Q 24.09375 4.203125 27 7.703125 
L 28.296875 6.59375 
Q 23.5 -1 16.296875 -1 
Q 7.40625 -1 7.40625 11.703125 
L 7.40625 41.796875 
L 2.09375 41.796875 
Q 1.703125 42.09375 1.703125 42.5 
Q 1.703125 43 2 43.296875 
Q 2.296875 43.59375 3.140625 44.140625 
Q 4 44.703125 5.203125 45.640625 
Q 6.40625 46.59375 8.5 49.09375 
Q 10.59375 51.59375 13.09375 55.09375 
Q 14.703125 57.40625 15.09375 57.90625 
Q 15.796875 57.90625 15.796875 56.59375 
L 15.796875 45 
z
" id="FreeSerif-116"/>
       <path d="M 14.203125 -13.40625 
Q 17 -13.40625 20.09375 -7.203125 
Q 23.203125 -1 23.203125 1.90625 
Q 23.203125 3.203125 18.796875 12 
L 5.59375 40.40625 
Q 4.40625 43 0.5 43.59375 
L 0.5 45 
L 21.09375 45 
L 21.09375 43.5 
Q 17.90625 43.40625 16.59375 42.796875 
Q 15.296875 42.203125 15.296875 40.796875 
Q 15.296875 39.296875 16.296875 37 
L 27.796875 11.703125 
L 37.5 39.296875 
Q 37.90625 40.203125 37.90625 41 
Q 37.90625 43.5 33.09375 43.5 
L 33.09375 45 
L 46.59375 45 
L 46.59375 43.5 
Q 44.796875 43.296875 43.75 42.34375 
Q 42.703125 41.40625 41.796875 39 
L 26.40625 -1.796875 
Q 22.40625 -12.59375 18.453125 -17.1875 
Q 14.5 -21.796875 9.5 -21.796875 
Q 6.296875 -21.796875 4.1875 -20.140625 
Q 2.09375 -18.5 2.09375 -16 
Q 2.09375 -14.203125 3.390625 -12.890625 
Q 4.703125 -11.59375 6.40625 -11.59375 
Q 8.59375 -11.59375 11.09375 -12.5 
Q 13.59375 -13.40625 14.203125 -13.40625 
z
" id="FreeSerif-121"/>
       <path id="FreeSerif-32"/>
       <path d="M 35.703125 19.40625 
Q 35.703125 24.703125 33.34375 28.796875 
Q 31 32.90625 27.640625 35.15625 
Q 24.296875 37.40625 20.140625 38.84375 
Q 16 40.296875 12.953125 40.75 
Q 9.90625 41.203125 7.59375 41.203125 
Q 6.40625 41.203125 6.40625 42 
Q 6.40625 42.296875 6.5 42.5 
L 17.40625 66.203125 
L 38.296875 66.203125 
Q 39.90625 66.203125 40.84375 66.703125 
Q 41.796875 67.203125 42.90625 68.796875 
L 43.796875 68.09375 
L 40 59.203125 
Q 39.59375 58.296875 37.703125 58.296875 
L 18.09375 58.296875 
L 13.90625 49.796875 
Q 28.5 47.203125 35.59375 41.34375 
Q 42.703125 35.5 42.703125 24.203125 
Q 42.703125 18.296875 40.84375 13.6875 
Q 39 9.09375 36.140625 6.296875 
Q 33.296875 3.5 29.546875 1.703125 
Q 25.796875 -0.09375 22.34375 -0.75 
Q 18.90625 -1.40625 15.40625 -1.40625 
Q 9.796875 -1.40625 6.5 0.25 
Q 3.203125 1.90625 3.203125 4.796875 
Q 3.203125 8.5 7.5 8.5 
Q 10.296875 8.5 14.75 5.390625 
Q 19.203125 2.296875 21.796875 2.296875 
Q 27.703125 2.296875 31.703125 7.25 
Q 35.703125 12.203125 35.703125 19.40625 
z
" id="FreeSerif-53"/>
      </defs>
      <g transform="translate(116.452969 329.326875)scale(0.24 -0.24)">
       <use xlink:href="#FreeSerif-118"/>
       <use x="46.768738" xlink:href="#FreeSerif-101"/>
       <use x="91.137482" xlink:href="#FreeSerif-108"/>
       <use x="116.921844" xlink:href="#FreeSerif-111"/>
       <use x="166.021835" xlink:href="#FreeSerif-99"/>
       <use x="210.406204" xlink:href="#FreeSerif-105"/>
       <use x="238.174942" xlink:href="#FreeSerif-116"/>
       <use x="266.47493" xlink:href="#FreeSerif-121"/>
       <use x="313.574921" xlink:href="#FreeSerif-32"/>
       <use x="338.574905" xlink:href="#FreeSerif-53"/>
      </g>
     </g>
    </g>
    <g id="xtick_2">
     <g id="line2d_3">
      <path clip-path="url(#p1721447ff6)" d="M 354.360156 305.815625 
L 354.360156 10.8 
" style="fill:none;stroke:#b0b0b0;stroke-dasharray:2.96,1.28;stroke-dashoffset:0;stroke-width:0.8;"/>
     </g>
     <g id="line2d_4">
      <g>
       <use style="stroke:#000000;stroke-width:0.8;" x="354.360156" xlink:href="#m231f4d0b46" y="305.815625"/>
      </g>
     </g>
     <g id="text_2">
      <!-- velocity 6 -->
      <defs>
       <path d="M 25.796875 -1.40625 
Q 15.703125 -1.40625 9.546875 6.640625 
Q 3.40625 14.703125 3.40625 27.90625 
Q 3.40625 32 4.203125 36.34375 
Q 5 40.703125 7.703125 46.25 
Q 10.40625 51.796875 14.703125 56.1875 
Q 19 60.59375 26.75 64.046875 
Q 34.5 67.5 44.59375 68.40625 
L 44.796875 66.796875 
Q 33 64.90625 25.09375 57.25 
Q 17.203125 49.59375 15.203125 38.296875 
Q 19.90625 41.09375 22.296875 41.9375 
Q 24.703125 42.796875 28 42.796875 
Q 36.59375 42.796875 41.6875 37.140625 
Q 46.796875 31.5 46.796875 21.90625 
Q 46.796875 11.59375 40.9375 5.09375 
Q 35.09375 -1.40625 25.796875 -1.40625 
z
M 24.203125 38.203125 
Q 17.40625 38.203125 15.046875 35.203125 
Q 12.703125 32.203125 12.703125 26.296875 
Q 12.703125 14.703125 16.5 8.046875 
Q 20.296875 1.40625 26.90625 1.40625 
Q 32.203125 1.40625 35 5.84375 
Q 37.796875 10.296875 37.796875 18.5 
Q 37.796875 27.90625 34.25 33.046875 
Q 30.703125 38.203125 24.203125 38.203125 
z
" id="FreeSerif-54"/>
      </defs>
      <g transform="translate(307.732656 329.233125)scale(0.24 -0.24)">
       <use xlink:href="#FreeSerif-118"/>
       <use x="46.768738" xlink:href="#FreeSerif-101"/>
       <use x="91.137482" xlink:href="#FreeSerif-108"/>
       <use x="116.921844" xlink:href="#FreeSerif-111"/>
       <use x="166.021835" xlink:href="#FreeSerif-99"/>
       <use x="210.406204" xlink:href="#FreeSerif-105"/>
       <use x="238.174942" xlink:href="#FreeSerif-116"/>
       <use x="266.47493" xlink:href="#FreeSerif-121"/>
       <use x="313.574921" xlink:href="#FreeSerif-32"/>
       <use x="338.574905" xlink:href="#FreeSerif-54"/>
      </g>
     </g>
    </g>
   </g>
   <g id="matplotlib.axis_2">
    <g id="ytick_1">
     <g id="line2d_5">
      <path clip-path="url(#p1721447ff6)" d="M 67.440625 296.987836 
L 450 296.987836 
" style="fill:none;stroke:#b0b0b0;stroke-dasharray:2.96,1.28;stroke-dashoffset:0;stroke-width:0.8;"/>
     </g>
     <g id="line2d_6">
      <defs>
       <path d="M 0 0 
L -3.5 0 
" id="mb96b1fb0f6" style="stroke:#000000;stroke-width:0.8;"/>
      </defs>
      <g>
       <use style="stroke:#000000;stroke-width:0.8;" x="67.440625" xlink:href="#mb96b1fb0f6" y="296.987836"/>
      </g>
     </g>
     <g id="text_3">
      <!-- 0 -->
      <defs>
       <path d="M 47.59375 17.796875 
Q 35.203125 -1.40625 25 -1.40625 
Q 14.796875 -1.40625 8.59375 8.390625 
Q 2.40625 18.203125 2.40625 33.59375 
Q 2.40625 48.09375 8.59375 57.84375 
Q 14.796875 67.59375 25.40625 67.59375 
Q 35.203125 67.59375 41.390625 58 
Q 47.59375 48.40625 47.59375 33 
Q 47.59375 17.796875 35.203125 -1.40625 
z
M 25.09375 65 
Q 12 65 12 32.703125 
Q 12 1.203125 25 1.203125 
Q 38 1.203125 38 32.796875 
Q 38 48.5 34.703125 56.75 
Q 31.40625 65 25.09375 65 
z
" id="FreeSerif-48"/>
      </defs>
      <g transform="translate(48.440625 305.183461)scale(0.24 -0.24)">
       <use xlink:href="#FreeSerif-48"/>
      </g>
     </g>
    </g>
    <g id="ytick_2">
     <g id="line2d_7">
      <path clip-path="url(#p1721447ff6)" d="M 67.440625 263.947952 
L 450 263.947952 
" style="fill:none;stroke:#b0b0b0;stroke-dasharray:2.96,1.28;stroke-dashoffset:0;stroke-width:0.8;"/>
     </g>
     <g id="line2d_8">
      <g>
       <use style="stroke:#000000;stroke-width:0.8;" x="67.440625" xlink:href="#mb96b1fb0f6" y="263.947952"/>
      </g>
     </g>
     <g id="text_4">
      <!-- 2 -->
      <defs>
       <path d="M 3.09375 47.703125 
Q 3.59375 50 4.09375 51.703125 
Q 4.59375 53.40625 6.25 56.65625 
Q 7.90625 59.90625 9.953125 62.046875 
Q 12 64.203125 15.640625 65.890625 
Q 19.296875 67.59375 23.90625 67.59375 
Q 31.703125 67.59375 37.046875 62.5 
Q 42.40625 57.40625 42.40625 49.90625 
Q 42.40625 38.59375 29.59375 25.203125 
L 12.796875 7.59375 
L 36.703125 7.59375 
Q 40.09375 7.59375 41.75 8.75 
Q 43.40625 9.90625 46.203125 14.203125 
L 47.5 13.703125 
L 42 0 
L 3 0 
L 3 1.203125 
L 20.796875 20.09375 
Q 33.796875 33.90625 33.796875 46.09375 
Q 33.796875 52.40625 29.890625 56.296875 
Q 26 60.203125 19.703125 60.203125 
Q 14.5 60.203125 11.34375 57.34375 
Q 8.203125 54.5 5.203125 47.203125 
z
" id="FreeSerif-50"/>
      </defs>
      <g transform="translate(48.440625 272.143577)scale(0.24 -0.24)">
       <use xlink:href="#FreeSerif-50"/>
      </g>
     </g>
    </g>
    <g id="ytick_3">
     <g id="line2d_9">
      <path clip-path="url(#p1721447ff6)" d="M 67.440625 230.908068 
L 450 230.908068 
" style="fill:none;stroke:#b0b0b0;stroke-dasharray:2.96,1.28;stroke-dashoffset:0;stroke-width:0.8;"/>
     </g>
     <g id="line2d_10">
      <g>
       <use style="stroke:#000000;stroke-width:0.8;" x="67.440625" xlink:href="#mb96b1fb0f6" y="230.908068"/>
      </g>
     </g>
     <g id="text_5">
      <!-- 4 -->
      <defs>
       <path d="M 47.203125 23.09375 
L 47.203125 16.703125 
L 37 16.703125 
L 37 0 
L 29.296875 0 
L 29.296875 16.703125 
L 1.203125 16.703125 
L 1.203125 23.09375 
L 32.59375 67.59375 
L 37 67.59375 
L 37 23.09375 
z
M 29.203125 23.09375 
L 29.203125 57.40625 
L 5.203125 23.09375 
z
" id="FreeSerif-52"/>
      </defs>
      <g transform="translate(48.440625 239.103693)scale(0.24 -0.24)">
       <use xlink:href="#FreeSerif-52"/>
      </g>
     </g>
    </g>
    <g id="ytick_4">
     <g id="line2d_11">
      <path clip-path="url(#p1721447ff6)" d="M 67.440625 197.868185 
L 450 197.868185 
" style="fill:none;stroke:#b0b0b0;stroke-dasharray:2.96,1.28;stroke-dashoffset:0;stroke-width:0.8;"/>
     </g>
     <g id="line2d_12">
      <g>
       <use style="stroke:#000000;stroke-width:0.8;" x="67.440625" xlink:href="#mb96b1fb0f6" y="197.868185"/>
      </g>
     </g>
     <g id="text_6">
      <!-- 6 -->
      <g transform="translate(48.440625 206.06381)scale(0.24 -0.24)">
       <use xlink:href="#FreeSerif-54"/>
      </g>
     </g>
    </g>
    <g id="ytick_5">
     <g id="line2d_13">
      <path clip-path="url(#p1721447ff6)" d="M 67.440625 164.828301 
L 450 164.828301 
" style="fill:none;stroke:#b0b0b0;stroke-dasharray:2.96,1.28;stroke-dashoffset:0;stroke-width:0.8;"/>
     </g>
     <g id="line2d_14">
      <g>
       <use style="stroke:#000000;stroke-width:0.8;" x="67.440625" xlink:href="#mb96b1fb0f6" y="164.828301"/>
      </g>
     </g>
     <g id="text_7">
      <!-- 8 -->
      <defs>
       <path d="M 29 37.09375 
Q 38 30.40625 41.25 25.84375 
Q 44.5 21.296875 44.5 15.5 
Q 44.5 7.796875 39.140625 3.1875 
Q 33.796875 -1.40625 24.796875 -1.40625 
Q 16.296875 -1.40625 10.9375 3.1875 
Q 5.59375 7.796875 5.59375 15.09375 
Q 5.59375 20.203125 8.046875 23.640625 
Q 10.5 27.09375 18.59375 33.203125 
Q 10.703125 40.09375 8.453125 43.5 
Q 6.203125 46.90625 6.203125 51.796875 
Q 6.203125 58.59375 11.59375 63.09375 
Q 17 67.59375 25.203125 67.59375 
Q 32.703125 67.59375 37.546875 63.59375 
Q 42.40625 59.59375 42.40625 53.40625 
Q 42.40625 48.296875 39.40625 44.6875 
Q 36.40625 41.09375 29 37.09375 
z
M 21.203125 31.203125 
Q 16.796875 27.703125 15 24.203125 
Q 13.203125 20.703125 13.203125 15.90625 
Q 13.203125 9.40625 16.703125 5.40625 
Q 20.203125 1.40625 25.90625 1.40625 
Q 30.796875 1.40625 33.84375 4.453125 
Q 36.90625 7.5 36.90625 12.40625 
Q 36.90625 14 36.546875 15.390625 
Q 36.203125 16.796875 35.84375 17.84375 
Q 35.5 18.90625 34.453125 20.203125 
Q 33.40625 21.5 32.75 22.25 
Q 32.09375 23 30.390625 24.390625 
Q 28.703125 25.796875 27.84375 26.390625 
Q 27 27 24.640625 28.703125 
Q 22.296875 30.40625 21.203125 31.203125 
z
M 26.09375 38.90625 
Q 26.203125 39 27.453125 39.84375 
Q 28.703125 40.703125 29.25 41.203125 
Q 29.796875 41.703125 30.9375 42.75 
Q 32.09375 43.796875 32.6875 44.75 
Q 33.296875 45.703125 34.046875 47.046875 
Q 34.796875 48.40625 35.140625 50.046875 
Q 35.5 51.703125 35.5 53.5 
Q 35.5 58.703125 32.5 61.75 
Q 29.5 64.796875 24.40625 64.796875 
Q 19.703125 64.796875 16.640625 62 
Q 13.59375 59.203125 13.59375 54.90625 
Q 13.59375 50.703125 16.5 47 
Q 19.40625 43.296875 26.09375 38.90625 
z
" id="FreeSerif-56"/>
      </defs>
      <g transform="translate(48.440625 173.023926)scale(0.24 -0.24)">
       <use xlink:href="#FreeSerif-56"/>
      </g>
     </g>
    </g>
    <g id="ytick_6">
     <g id="line2d_15">
      <path clip-path="url(#p1721447ff6)" d="M 67.440625 131.788417 
L 450 131.788417 
" style="fill:none;stroke:#b0b0b0;stroke-dasharray:2.96,1.28;stroke-dashoffset:0;stroke-width:0.8;"/>
     </g>
     <g id="line2d_16">
      <g>
       <use style="stroke:#000000;stroke-width:0.8;" x="67.440625" xlink:href="#mb96b1fb0f6" y="131.788417"/>
      </g>
     </g>
     <g id="text_8">
      <!-- 10 -->
      <defs>
       <path d="M 18.296875 59.296875 
Q 16.5 59.296875 11.09375 57.09375 
L 11.09375 58.5 
L 29.09375 67.59375 
L 29.90625 67.40625 
L 29.90625 7.40625 
Q 29.90625 3.796875 31.703125 2.6875 
Q 33.5 1.59375 39.40625 1.5 
L 39.40625 0 
L 11.796875 0 
L 11.796875 1.5 
Q 17.40625 1.703125 19.34375 3.140625 
Q 21.296875 4.59375 21.296875 9.296875 
L 21.296875 54.59375 
Q 21.296875 59.296875 18.296875 59.296875 
z
" id="FreeSerif-49"/>
      </defs>
      <g transform="translate(36.440625 139.984042)scale(0.24 -0.24)">
       <use xlink:href="#FreeSerif-49"/>
       <use x="49.999985" xlink:href="#FreeSerif-48"/>
      </g>
     </g>
    </g>
    <g id="ytick_7">
     <g id="line2d_17">
      <path clip-path="url(#p1721447ff6)" d="M 67.440625 98.748533 
L 450 98.748533 
" style="fill:none;stroke:#b0b0b0;stroke-dasharray:2.96,1.28;stroke-dashoffset:0;stroke-width:0.8;"/>
     </g>
     <g id="line2d_18">
      <g>
       <use style="stroke:#000000;stroke-width:0.8;" x="67.440625" xlink:href="#mb96b1fb0f6" y="98.748533"/>
      </g>
     </g>
     <g id="text_9">
      <!-- 12 -->
      <g transform="translate(36.440625 106.944158)scale(0.24 -0.24)">
       <use xlink:href="#FreeSerif-49"/>
       <use x="49.999985" xlink:href="#FreeSerif-50"/>
      </g>
     </g>
    </g>
    <g id="ytick_8">
     <g id="line2d_19">
      <path clip-path="url(#p1721447ff6)" d="M 67.440625 65.708649 
L 450 65.708649 
" style="fill:none;stroke:#b0b0b0;stroke-dasharray:2.96,1.28;stroke-dashoffset:0;stroke-width:0.8;"/>
     </g>
     <g id="line2d_20">
      <g>
       <use style="stroke:#000000;stroke-width:0.8;" x="67.440625" xlink:href="#mb96b1fb0f6" y="65.708649"/>
      </g>
     </g>
     <g id="text_10">
      <!-- 14 -->
      <g transform="translate(36.440625 73.904274)scale(0.24 -0.24)">
       <use xlink:href="#FreeSerif-49"/>
       <use x="49.999985" xlink:href="#FreeSerif-52"/>
      </g>
     </g>
    </g>
    <g id="ytick_9">
     <g id="line2d_21">
      <path clip-path="url(#p1721447ff6)" d="M 67.440625 32.668766 
L 450 32.668766 
" style="fill:none;stroke:#b0b0b0;stroke-dasharray:2.96,1.28;stroke-dashoffset:0;stroke-width:0.8;"/>
     </g>
     <g id="line2d_22">
      <g>
       <use style="stroke:#000000;stroke-width:0.8;" x="67.440625" xlink:href="#mb96b1fb0f6" y="32.668766"/>
      </g>
     </g>
     <g id="text_11">
      <!-- 16 -->
      <g transform="translate(36.440625 40.864391)scale(0.24 -0.24)">
       <use xlink:href="#FreeSerif-49"/>
       <use x="49.999985" xlink:href="#FreeSerif-54"/>
      </g>
     </g>
    </g>
    <g id="text_12">
     <!-- Velocity (m/s) -->
     <defs>
      <path d="M 69.09375 66.203125 
L 69.09375 64.296875 
Q 65.40625 64.09375 63.84375 62.5 
Q 62.296875 60.90625 59.90625 55 
L 37.703125 -1.09375 
L 36.203125 -1.09375 
L 11.59375 53.796875 
Q 8.703125 60.40625 6.75 62.25 
Q 4.796875 64.09375 1 64.296875 
L 1 66.203125 
L 27.59375 66.203125 
L 27.59375 64.296875 
Q 24.796875 64.09375 24.703125 64.09375 
Q 20.09375 63.796875 20.09375 61 
Q 20.09375 59 24.203125 49.90625 
L 39.296875 16.09375 
L 54 52.796875 
Q 55.90625 57.59375 55.90625 60.09375 
Q 55.90625 62.203125 54.296875 63.140625 
Q 52.703125 64.09375 48.59375 64.296875 
L 48.59375 66.203125 
z
" id="FreeSerif-86"/>
      <path d="M 29.203125 -17.703125 
Q 26.59375 -16.09375 23.796875 -13.84375 
Q 21 -11.59375 17.453125 -7.59375 
Q 13.90625 -3.59375 11.203125 0.953125 
Q 8.5 5.5 6.640625 11.890625 
Q 4.796875 18.296875 4.796875 25.203125 
Q 4.796875 32.40625 6.640625 38.84375 
Q 8.5 45.296875 11 49.546875 
Q 13.5 53.796875 17.34375 57.75 
Q 21.203125 61.703125 23.703125 63.59375 
Q 26.203125 65.5 29.5 67.59375 
L 30.40625 66 
Q 26 62.40625 23.296875 59.5 
Q 20.59375 56.59375 18.09375 51.9375 
Q 15.59375 47.296875 14.5 40.84375 
Q 13.40625 34.40625 13.40625 25.5 
Q 13.40625 16.203125 14.5 9.5 
Q 15.59375 2.796875 18.09375 -1.953125 
Q 20.59375 -6.703125 23.296875 -9.703125 
Q 26 -12.703125 30.40625 -16.09375 
z
" id="FreeSerif-40"/>
      <path d="M 1.296875 39.796875 
L 1.296875 41.5 
Q 8.5 43.5 15.296875 46 
L 16 45.796875 
L 16 38.296875 
Q 22.203125 43 25.203125 44.5 
Q 28.203125 46 31.5 46 
Q 39.40625 46 42.09375 37.59375 
Q 49.90625 46 58.40625 46 
Q 70 46 70 28.203125 
L 70 7.59375 
Q 70 2 74.296875 1.703125 
L 76.90625 1.5 
L 76.90625 0 
L 55 0 
L 55 1.5 
Q 59.40625 2 60.5 3.203125 
Q 61.59375 4.40625 61.59375 8.703125 
L 61.59375 29.796875 
Q 61.59375 36 60 38.390625 
Q 58.40625 40.796875 54.09375 40.796875 
Q 47.5 40.796875 43.203125 34.703125 
L 43.203125 9.5 
Q 43.203125 4.796875 44.640625 3.1875 
Q 46.09375 1.59375 50.40625 1.5 
L 50.40625 0 
L 28 0 
L 28 1.5 
Q 32.296875 1.796875 33.546875 3.09375 
Q 34.796875 4.40625 34.796875 8.59375 
L 34.796875 30.296875 
Q 34.796875 40.796875 28.203125 40.796875 
Q 25.40625 40.796875 21.953125 39.390625 
Q 18.5 38 16.40625 34.90625 
L 16.40625 6.703125 
Q 16.40625 3.796875 17.796875 2.75 
Q 19.203125 1.703125 23.203125 1.5 
L 23.203125 0 
L 1 0 
L 1 1.5 
Q 5.203125 1.59375 6.59375 3 
Q 8 4.40625 8 8.5 
L 8 33.796875 
Q 8 37.40625 7.25 38.796875 
Q 6.5 40.203125 4.5 40.203125 
Q 3 40.203125 1.296875 39.796875 
z
" id="FreeSerif-109"/>
      <path d="M 29.59375 67.59375 
L 6.796875 -1.40625 
L 0 -1.40625 
L 22.90625 67.59375 
z
" id="FreeSerif-47"/>
      <path d="M 26.796875 44 
Q 26.90625 44 28.40625 45 
L 29.5 45 
L 29.90625 31.40625 
L 28.40625 31.40625 
Q 26.703125 38.09375 24.203125 40.890625 
Q 21.703125 43.703125 17.40625 43.703125 
Q 14 43.703125 11.84375 41.796875 
Q 9.703125 39.90625 9.703125 36.90625 
Q 9.703125 32.59375 14 30.09375 
L 24.796875 23.703125 
Q 29.296875 21 31.25 18.25 
Q 33.203125 15.5 33.203125 11.796875 
Q 33.203125 6.59375 29.046875 2.796875 
Q 24.90625 -1 19.09375 -1 
Q 16.59375 -1 12.390625 -0.09375 
Q 8.203125 0.796875 7.203125 0.796875 
Q 5.703125 0.796875 4.90625 -0.40625 
L 3.59375 -0.40625 
L 3.59375 15.203125 
L 5.203125 15.203125 
Q 6.796875 8.203125 9 5.296875 
Q 12.203125 1.203125 17.90625 1.203125 
Q 21.703125 1.203125 23.953125 3.140625 
Q 26.203125 5.09375 26.203125 8.40625 
Q 26.203125 12.90625 21 15.90625 
L 15.203125 19.203125 
Q 8.796875 22.796875 6.140625 26.09375 
Q 3.5 29.40625 3.5 33.59375 
Q 3.5 39 7.34375 42.453125 
Q 11.203125 45.90625 17.09375 45.90625 
Q 20.40625 45.90625 23.296875 44.953125 
Q 26.203125 44 26.796875 44 
z
" id="FreeSerif-115"/>
      <path d="M 4.046875 67.703125 
Q 6.65625 66.09375 9.453125 63.84375 
Q 12.25 61.59375 15.796875 57.59375 
Q 19.34375 53.59375 22.046875 49.046875 
Q 24.75 44.5 26.59375 38.09375 
Q 28.453125 31.703125 28.453125 24.796875 
Q 28.453125 17.59375 26.59375 11.140625 
Q 24.75 4.703125 22.25 0.453125 
Q 19.75 -3.796875 15.890625 -7.75 
Q 12.046875 -11.703125 9.546875 -13.59375 
Q 7.046875 -15.5 3.75 -17.59375 
L 2.84375 -16 
Q 7.25 -12.40625 9.953125 -9.5 
Q 12.65625 -6.59375 15.15625 -1.9375 
Q 17.65625 2.703125 18.75 9.140625 
Q 19.84375 15.59375 19.84375 24.5 
Q 19.84375 33.796875 18.75 40.5 
Q 17.65625 47.203125 15.15625 51.953125 
Q 12.65625 56.703125 9.953125 59.703125 
Q 7.25 62.703125 2.84375 66.09375 
z
" id="FreeSerif-41"/>
     </defs>
     <g transform="translate(27.209375 227.020937)rotate(-90)scale(0.24 -0.24)">
      <use xlink:href="#FreeSerif-86"/>
      <use x="70.021866" xlink:href="#FreeSerif-101"/>
      <use x="114.39061" xlink:href="#FreeSerif-108"/>
      <use x="140.174973" xlink:href="#FreeSerif-111"/>
      <use x="189.274963" xlink:href="#FreeSerif-99"/>
      <use x="233.659332" xlink:href="#FreeSerif-105"/>
      <use x="261.42807" xlink:href="#FreeSerif-116"/>
      <use x="289.728058" xlink:href="#FreeSerif-121"/>
      <use x="336.828049" xlink:href="#FreeSerif-32"/>
      <use x="361.828033" xlink:href="#FreeSerif-40"/>
      <use x="395.128021" xlink:href="#FreeSerif-109"/>
      <use x="473.028015" xlink:href="#FreeSerif-47"/>
      <use x="502.628006" xlink:href="#FreeSerif-115"/>
      <use x="539.328003" xlink:href="#FreeSerif-41"/>
     </g>
    </g>
   </g>
   <g id="line2d_23">
    <path clip-path="url(#p1721447ff6)" d="M 148.734492 199.444065 
L 177.426445 199.444065 
L 177.426445 182.290607 
L 148.734492 182.290607 
L 148.734492 199.444065 
" style="fill:none;stroke:#000000;stroke-linecap:square;"/>
   </g>
   <g id="line2d_24">
    <path clip-path="url(#p1721447ff6)" d="M 163.080469 199.444065 
L 163.080469 225.028288 
" style="fill:none;stroke:#000000;stroke-linecap:square;"/>
   </g>
   <g id="line2d_25">
    <path clip-path="url(#p1721447ff6)" d="M 163.080469 182.290607 
L 163.080469 156.923651 
" style="fill:none;stroke:#000000;stroke-linecap:square;"/>
   </g>
   <g id="line2d_26">
    <path clip-path="url(#p1721447ff6)" d="M 155.90748 225.028288 
L 170.253457 225.028288 
" style="fill:none;stroke:#000000;stroke-linecap:square;"/>
   </g>
   <g id="line2d_27">
    <path clip-path="url(#p1721447ff6)" d="M 155.90748 156.923651 
L 170.253457 156.923651 
" style="fill:none;stroke:#000000;stroke-linecap:square;"/>
   </g>
   <g id="line2d_28">
    <defs>
     <path d="M 0 3 
C 0.795609 3 1.55874 2.683901 2.12132 2.12132 
C 2.683901 1.55874 3 0.795609 3 0 
C 3 -0.795609 2.683901 -1.55874 2.12132 -2.12132 
C 1.55874 -2.683901 0.795609 -3 0 -3 
C -0.795609 -3 -1.55874 -2.683901 -2.12132 -2.12132 
C -2.683901 -1.55874 -3 -0.795609 -3 0 
C -3 0.795609 -2.683901 1.55874 -2.12132 2.12132 
C -1.55874 2.683901 -0.795609 3 0 3 
z
" id="mb698b572d4" style="stroke:#000000;"/>
    </defs>
    <g clip-path="url(#p1721447ff6)">
     <use style="fill-opacity:0;stroke:#000000;" x="163.080469" xlink:href="#mb698b572d4" y="268.140488"/>
     <use style="fill-opacity:0;stroke:#000000;" x="163.080469" xlink:href="#mb698b572d4" y="227.319767"/>
     <use style="fill-opacity:0;stroke:#000000;" x="163.080469" xlink:href="#mb698b572d4" y="269.689223"/>
     <use style="fill-opacity:0;stroke:#000000;" x="163.080469" xlink:href="#mb698b572d4" y="260.102013"/>
     <use style="fill-opacity:0;stroke:#000000;" x="163.080469" xlink:href="#mb698b572d4" y="243.809845"/>
     <use style="fill-opacity:0;stroke:#000000;" x="163.080469" xlink:href="#mb698b572d4" y="237.583802"/>
     <use style="fill-opacity:0;stroke:#000000;" x="163.080469" xlink:href="#mb698b572d4" y="242.298715"/>
     <use style="fill-opacity:0;stroke:#000000;" x="163.080469" xlink:href="#mb698b572d4" y="244.215496"/>
     <use style="fill-opacity:0;stroke:#000000;" x="163.080469" xlink:href="#mb698b572d4" y="264.132554"/>
     <use style="fill-opacity:0;stroke:#000000;" x="163.080469" xlink:href="#mb698b572d4" y="225.346228"/>
     <use style="fill-opacity:0;stroke:#000000;" x="163.080469" xlink:href="#mb698b572d4" y="246.287287"/>
     <use style="fill-opacity:0;stroke:#000000;" x="163.080469" xlink:href="#mb698b572d4" y="272.351406"/>
     <use style="fill-opacity:0;stroke:#000000;" x="163.080469" xlink:href="#mb698b572d4" y="272.268168"/>
     <use style="fill-opacity:0;stroke:#000000;" x="163.080469" xlink:href="#mb698b572d4" y="256.345652"/>
     <use style="fill-opacity:0;stroke:#000000;" x="163.080469" xlink:href="#mb698b572d4" y="255.442122"/>
     <use style="fill-opacity:0;stroke:#000000;" x="163.080469" xlink:href="#mb698b572d4" y="272.725454"/>
     <use style="fill-opacity:0;stroke:#000000;" x="163.080469" xlink:href="#mb698b572d4" y="225.353382"/>
     <use style="fill-opacity:0;stroke:#000000;" x="163.080469" xlink:href="#mb698b572d4" y="274.258761"/>
     <use style="fill-opacity:0;stroke:#000000;" x="163.080469" xlink:href="#mb698b572d4" y="231.580532"/>
     <use style="fill-opacity:0;stroke:#000000;" x="163.080469" xlink:href="#mb698b572d4" y="274.505863"/>
     <use style="fill-opacity:0;stroke:#000000;" x="163.080469" xlink:href="#mb698b572d4" y="226.890558"/>
     <use style="fill-opacity:0;stroke:#000000;" x="163.080469" xlink:href="#mb698b572d4" y="226.269746"/>
     <use style="fill-opacity:0;stroke:#000000;" x="163.080469" xlink:href="#mb698b572d4" y="235.42666"/>
     <use style="fill-opacity:0;stroke:#000000;" x="163.080469" xlink:href="#mb698b572d4" y="227.53002"/>
     <use style="fill-opacity:0;stroke:#000000;" x="163.080469" xlink:href="#mb698b572d4" y="225.714853"/>
     <use style="fill-opacity:0;stroke:#000000;" x="163.080469" xlink:href="#mb698b572d4" y="229.721709"/>
     <use style="fill-opacity:0;stroke:#000000;" x="163.080469" xlink:href="#mb698b572d4" y="265.076476"/>
     <use style="fill-opacity:0;stroke:#000000;" x="163.080469" xlink:href="#mb698b572d4" y="273.215485"/>
     <use style="fill-opacity:0;stroke:#000000;" x="163.080469" xlink:href="#mb698b572d4" y="228.624674"/>
     <use style="fill-opacity:0;stroke:#000000;" x="163.080469" xlink:href="#mb698b572d4" y="227.902171"/>
     <use style="fill-opacity:0;stroke:#000000;" x="163.080469" xlink:href="#mb698b572d4" y="226.959407"/>
     <use style="fill-opacity:0;stroke:#000000;" x="163.080469" xlink:href="#mb698b572d4" y="277.761459"/>
     <use style="fill-opacity:0;stroke:#000000;" x="163.080469" xlink:href="#mb698b572d4" y="225.367469"/>
     <use style="fill-opacity:0;stroke:#000000;" x="163.080469" xlink:href="#mb698b572d4" y="235.258296"/>
     <use style="fill-opacity:0;stroke:#000000;" x="163.080469" xlink:href="#mb698b572d4" y="284.4732"/>
     <use style="fill-opacity:0;stroke:#000000;" x="163.080469" xlink:href="#mb698b572d4" y="245.295971"/>
     <use style="fill-opacity:0;stroke:#000000;" x="163.080469" xlink:href="#mb698b572d4" y="242.393122"/>
     <use style="fill-opacity:0;stroke:#000000;" x="163.080469" xlink:href="#mb698b572d4" y="266.162343"/>
     <use style="fill-opacity:0;stroke:#000000;" x="163.080469" xlink:href="#mb698b572d4" y="225.707186"/>
     <use style="fill-opacity:0;stroke:#000000;" x="163.080469" xlink:href="#mb698b572d4" y="246.530145"/>
     <use style="fill-opacity:0;stroke:#000000;" x="163.080469" xlink:href="#mb698b572d4" y="280.620941"/>
     <use style="fill-opacity:0;stroke:#000000;" x="163.080469" xlink:href="#mb698b572d4" y="234.525525"/>
     <use style="fill-opacity:0;stroke:#000000;" x="163.080469" xlink:href="#mb698b572d4" y="238.473296"/>
     <use style="fill-opacity:0;stroke:#000000;" x="163.080469" xlink:href="#mb698b572d4" y="247.230309"/>
     <use style="fill-opacity:0;stroke:#000000;" x="163.080469" xlink:href="#mb698b572d4" y="242.77631"/>
     <use style="fill-opacity:0;stroke:#000000;" x="163.080469" xlink:href="#mb698b572d4" y="261.615265"/>
     <use style="fill-opacity:0;stroke:#000000;" x="163.080469" xlink:href="#mb698b572d4" y="259.481171"/>
     <use style="fill-opacity:0;stroke:#000000;" x="163.080469" xlink:href="#mb698b572d4" y="292.405824"/>
     <use style="fill-opacity:0;stroke:#000000;" x="163.080469" xlink:href="#mb698b572d4" y="266.399285"/>
     <use style="fill-opacity:0;stroke:#000000;" x="163.080469" xlink:href="#mb698b572d4" y="139.773272"/>
     <use style="fill-opacity:0;stroke:#000000;" x="163.080469" xlink:href="#mb698b572d4" y="138.603002"/>
     <use style="fill-opacity:0;stroke:#000000;" x="163.080469" xlink:href="#mb698b572d4" y="111.02209"/>
     <use style="fill-opacity:0;stroke:#000000;" x="163.080469" xlink:href="#mb698b572d4" y="136.423954"/>
     <use style="fill-opacity:0;stroke:#000000;" x="163.080469" xlink:href="#mb698b572d4" y="133.835642"/>
     <use style="fill-opacity:0;stroke:#000000;" x="163.080469" xlink:href="#mb698b572d4" y="141.26118"/>
     <use style="fill-opacity:0;stroke:#000000;" x="163.080469" xlink:href="#mb698b572d4" y="128.078035"/>
     <use style="fill-opacity:0;stroke:#000000;" x="163.080469" xlink:href="#mb698b572d4" y="139.188593"/>
     <use style="fill-opacity:0;stroke:#000000;" x="163.080469" xlink:href="#mb698b572d4" y="152.513687"/>
     <use style="fill-opacity:0;stroke:#000000;" x="163.080469" xlink:href="#mb698b572d4" y="61.122831"/>
     <use style="fill-opacity:0;stroke:#000000;" x="163.080469" xlink:href="#mb698b572d4" y="92.339627"/>
     <use style="fill-opacity:0;stroke:#000000;" x="163.080469" xlink:href="#mb698b572d4" y="135.293328"/>
     <use style="fill-opacity:0;stroke:#000000;" x="163.080469" xlink:href="#mb698b572d4" y="60.148699"/>
     <use style="fill-opacity:0;stroke:#000000;" x="163.080469" xlink:href="#mb698b572d4" y="152.308444"/>
     <use style="fill-opacity:0;stroke:#000000;" x="163.080469" xlink:href="#mb698b572d4" y="150.923503"/>
     <use style="fill-opacity:0;stroke:#000000;" x="163.080469" xlink:href="#mb698b572d4" y="154.939948"/>
     <use style="fill-opacity:0;stroke:#000000;" x="163.080469" xlink:href="#mb698b572d4" y="154.03287"/>
     <use style="fill-opacity:0;stroke:#000000;" x="163.080469" xlink:href="#mb698b572d4" y="148.68752"/>
     <use style="fill-opacity:0;stroke:#000000;" x="163.080469" xlink:href="#mb698b572d4" y="131.794665"/>
     <use style="fill-opacity:0;stroke:#000000;" x="163.080469" xlink:href="#mb698b572d4" y="132.856211"/>
     <use style="fill-opacity:0;stroke:#000000;" x="163.080469" xlink:href="#mb698b572d4" y="145.331986"/>
     <use style="fill-opacity:0;stroke:#000000;" x="163.080469" xlink:href="#mb698b572d4" y="139.180374"/>
     <use style="fill-opacity:0;stroke:#000000;" x="163.080469" xlink:href="#mb698b572d4" y="137.512982"/>
     <use style="fill-opacity:0;stroke:#000000;" x="163.080469" xlink:href="#mb698b572d4" y="144.05799"/>
     <use style="fill-opacity:0;stroke:#000000;" x="163.080469" xlink:href="#mb698b572d4" y="66.793949"/>
     <use style="fill-opacity:0;stroke:#000000;" x="163.080469" xlink:href="#mb698b572d4" y="147.350612"/>
     <use style="fill-opacity:0;stroke:#000000;" x="163.080469" xlink:href="#mb698b572d4" y="153.925103"/>
     <use style="fill-opacity:0;stroke:#000000;" x="163.080469" xlink:href="#mb698b572d4" y="116.04604"/>
     <use style="fill-opacity:0;stroke:#000000;" x="163.080469" xlink:href="#mb698b572d4" y="57.81819"/>
     <use style="fill-opacity:0;stroke:#000000;" x="163.080469" xlink:href="#mb698b572d4" y="75.645209"/>
     <use style="fill-opacity:0;stroke:#000000;" x="163.080469" xlink:href="#mb698b572d4" y="150.485728"/>
     <use style="fill-opacity:0;stroke:#000000;" x="163.080469" xlink:href="#mb698b572d4" y="70.705173"/>
     <use style="fill-opacity:0;stroke:#000000;" x="163.080469" xlink:href="#mb698b572d4" y="150.407628"/>
     <use style="fill-opacity:0;stroke:#000000;" x="163.080469" xlink:href="#mb698b572d4" y="149.237061"/>
     <use style="fill-opacity:0;stroke:#000000;" x="163.080469" xlink:href="#mb698b572d4" y="154.603566"/>
     <use style="fill-opacity:0;stroke:#000000;" x="163.080469" xlink:href="#mb698b572d4" y="39.554765"/>
     <use style="fill-opacity:0;stroke:#000000;" x="163.080469" xlink:href="#mb698b572d4" y="150.625194"/>
     <use style="fill-opacity:0;stroke:#000000;" x="163.080469" xlink:href="#mb698b572d4" y="153.621251"/>
     <use style="fill-opacity:0;stroke:#000000;" x="163.080469" xlink:href="#mb698b572d4" y="67.901183"/>
     <use style="fill-opacity:0;stroke:#000000;" x="163.080469" xlink:href="#mb698b572d4" y="144.066853"/>
     <use style="fill-opacity:0;stroke:#000000;" x="163.080469" xlink:href="#mb698b572d4" y="131.516218"/>
     <use style="fill-opacity:0;stroke:#000000;" x="163.080469" xlink:href="#mb698b572d4" y="152.525322"/>
     <use style="fill-opacity:0;stroke:#000000;" x="163.080469" xlink:href="#mb698b572d4" y="143.999088"/>
     <use style="fill-opacity:0;stroke:#000000;" x="163.080469" xlink:href="#mb698b572d4" y="152.971384"/>
     <use style="fill-opacity:0;stroke:#000000;" x="163.080469" xlink:href="#mb698b572d4" y="153.352649"/>
     <use style="fill-opacity:0;stroke:#000000;" x="163.080469" xlink:href="#mb698b572d4" y="153.845685"/>
     <use style="fill-opacity:0;stroke:#000000;" x="163.080469" xlink:href="#mb698b572d4" y="152.098948"/>
     <use style="fill-opacity:0;stroke:#000000;" x="163.080469" xlink:href="#mb698b572d4" y="122.74437"/>
     <use style="fill-opacity:0;stroke:#000000;" x="163.080469" xlink:href="#mb698b572d4" y="128.52115"/>
     <use style="fill-opacity:0;stroke:#000000;" x="163.080469" xlink:href="#mb698b572d4" y="155.881379"/>
     <use style="fill-opacity:0;stroke:#000000;" x="163.080469" xlink:href="#mb698b572d4" y="140.979312"/>
     <use style="fill-opacity:0;stroke:#000000;" x="163.080469" xlink:href="#mb698b572d4" y="124.144397"/>
     <use style="fill-opacity:0;stroke:#000000;" x="163.080469" xlink:href="#mb698b572d4" y="127.591038"/>
     <use style="fill-opacity:0;stroke:#000000;" x="163.080469" xlink:href="#mb698b572d4" y="151.495673"/>
     <use style="fill-opacity:0;stroke:#000000;" x="163.080469" xlink:href="#mb698b572d4" y="116.335297"/>
     <use style="fill-opacity:0;stroke:#000000;" x="163.080469" xlink:href="#mb698b572d4" y="103.824102"/>
     <use style="fill-opacity:0;stroke:#000000;" x="163.080469" xlink:href="#mb698b572d4" y="109.545799"/>
     <use style="fill-opacity:0;stroke:#000000;" x="163.080469" xlink:href="#mb698b572d4" y="93.748847"/>
    </g>
   </g>
   <g id="line2d_29">
    <path clip-path="url(#p1721447ff6)" d="M 340.01418 181.877595 
L 368.706133 181.877595 
L 368.706133 163.453259 
L 340.01418 163.453259 
L 340.01418 181.877595 
" style="fill:none;stroke:#000000;stroke-linecap:square;"/>
   </g>
   <g id="line2d_30">
    <path clip-path="url(#p1721447ff6)" d="M 354.360156 181.877595 
L 354.360156 209.496024 
" style="fill:none;stroke:#000000;stroke-linecap:square;"/>
   </g>
   <g id="line2d_31">
    <path clip-path="url(#p1721447ff6)" d="M 354.360156 163.453259 
L 354.360156 136.458473 
" style="fill:none;stroke:#000000;stroke-linecap:square;"/>
   </g>
   <g id="line2d_32">
    <path clip-path="url(#p1721447ff6)" d="M 347.187168 209.496024 
L 361.533145 209.496024 
" style="fill:none;stroke:#000000;stroke-linecap:square;"/>
   </g>
   <g id="line2d_33">
    <path clip-path="url(#p1721447ff6)" d="M 347.187168 136.458473 
L 361.533145 136.458473 
" style="fill:none;stroke:#000000;stroke-linecap:square;"/>
   </g>
   <g id="line2d_34">
    <g clip-path="url(#p1721447ff6)">
     <use style="fill-opacity:0;stroke:#000000;" x="354.360156" xlink:href="#mb698b572d4" y="216.987431"/>
     <use style="fill-opacity:0;stroke:#000000;" x="354.360156" xlink:href="#mb698b572d4" y="210.742366"/>
     <use style="fill-opacity:0;stroke:#000000;" x="354.360156" xlink:href="#mb698b572d4" y="239.182171"/>
     <use style="fill-opacity:0;stroke:#000000;" x="354.360156" xlink:href="#mb698b572d4" y="210.613354"/>
     <use style="fill-opacity:0;stroke:#000000;" x="354.360156" xlink:href="#mb698b572d4" y="265.73878"/>
     <use style="fill-opacity:0;stroke:#000000;" x="354.360156" xlink:href="#mb698b572d4" y="233.445837"/>
     <use style="fill-opacity:0;stroke:#000000;" x="354.360156" xlink:href="#mb698b572d4" y="250.520965"/>
     <use style="fill-opacity:0;stroke:#000000;" x="354.360156" xlink:href="#mb698b572d4" y="238.359403"/>
     <use style="fill-opacity:0;stroke:#000000;" x="354.360156" xlink:href="#mb698b572d4" y="222.547103"/>
     <use style="fill-opacity:0;stroke:#000000;" x="354.360156" xlink:href="#mb698b572d4" y="211.831069"/>
     <use style="fill-opacity:0;stroke:#000000;" x="354.360156" xlink:href="#mb698b572d4" y="210.285105"/>
     <use style="fill-opacity:0;stroke:#000000;" x="354.360156" xlink:href="#mb698b572d4" y="213.461694"/>
     <use style="fill-opacity:0;stroke:#000000;" x="354.360156" xlink:href="#mb698b572d4" y="213.719286"/>
     <use style="fill-opacity:0;stroke:#000000;" x="354.360156" xlink:href="#mb698b572d4" y="211.364965"/>
     <use style="fill-opacity:0;stroke:#000000;" x="354.360156" xlink:href="#mb698b572d4" y="257.882219"/>
     <use style="fill-opacity:0;stroke:#000000;" x="354.360156" xlink:href="#mb698b572d4" y="222.244143"/>
     <use style="fill-opacity:0;stroke:#000000;" x="354.360156" xlink:href="#mb698b572d4" y="212.691249"/>
     <use style="fill-opacity:0;stroke:#000000;" x="354.360156" xlink:href="#mb698b572d4" y="259.693685"/>
     <use style="fill-opacity:0;stroke:#000000;" x="354.360156" xlink:href="#mb698b572d4" y="257.842512"/>
     <use style="fill-opacity:0;stroke:#000000;" x="354.360156" xlink:href="#mb698b572d4" y="271.717103"/>
     <use style="fill-opacity:0;stroke:#000000;" x="354.360156" xlink:href="#mb698b572d4" y="239.870486"/>
     <use style="fill-opacity:0;stroke:#000000;" x="354.360156" xlink:href="#mb698b572d4" y="219.752465"/>
     <use style="fill-opacity:0;stroke:#000000;" x="354.360156" xlink:href="#mb698b572d4" y="261.655364"/>
     <use style="fill-opacity:0;stroke:#000000;" x="354.360156" xlink:href="#mb698b572d4" y="264.50947"/>
     <use style="fill-opacity:0;stroke:#000000;" x="354.360156" xlink:href="#mb698b572d4" y="229.602466"/>
     <use style="fill-opacity:0;stroke:#000000;" x="354.360156" xlink:href="#mb698b572d4" y="260.571152"/>
     <use style="fill-opacity:0;stroke:#000000;" x="354.360156" xlink:href="#mb698b572d4" y="275.916814"/>
     <use style="fill-opacity:0;stroke:#000000;" x="354.360156" xlink:href="#mb698b572d4" y="233.801339"/>
     <use style="fill-opacity:0;stroke:#000000;" x="354.360156" xlink:href="#mb698b572d4" y="226.59291"/>
     <use style="fill-opacity:0;stroke:#000000;" x="354.360156" xlink:href="#mb698b572d4" y="230.168267"/>
     <use style="fill-opacity:0;stroke:#000000;" x="354.360156" xlink:href="#mb698b572d4" y="212.257795"/>
     <use style="fill-opacity:0;stroke:#000000;" x="354.360156" xlink:href="#mb698b572d4" y="259.831531"/>
     <use style="fill-opacity:0;stroke:#000000;" x="354.360156" xlink:href="#mb698b572d4" y="225.922378"/>
     <use style="fill-opacity:0;stroke:#000000;" x="354.360156" xlink:href="#mb698b572d4" y="252.719989"/>
     <use style="fill-opacity:0;stroke:#000000;" x="354.360156" xlink:href="#mb698b572d4" y="269.191573"/>
     <use style="fill-opacity:0;stroke:#000000;" x="354.360156" xlink:href="#mb698b572d4" y="217.578416"/>
     <use style="fill-opacity:0;stroke:#000000;" x="354.360156" xlink:href="#mb698b572d4" y="241.242555"/>
     <use style="fill-opacity:0;stroke:#000000;" x="354.360156" xlink:href="#mb698b572d4" y="212.029935"/>
     <use style="fill-opacity:0;stroke:#000000;" x="354.360156" xlink:href="#mb698b572d4" y="218.604681"/>
     <use style="fill-opacity:0;stroke:#000000;" x="354.360156" xlink:href="#mb698b572d4" y="214.229252"/>
     <use style="fill-opacity:0;stroke:#000000;" x="354.360156" xlink:href="#mb698b572d4" y="213.20274"/>
     <use style="fill-opacity:0;stroke:#000000;" x="354.360156" xlink:href="#mb698b572d4" y="217.733368"/>
     <use style="fill-opacity:0;stroke:#000000;" x="354.360156" xlink:href="#mb698b572d4" y="210.189009"/>
     <use style="fill-opacity:0;stroke:#000000;" x="354.360156" xlink:href="#mb698b572d4" y="222.369741"/>
     <use style="fill-opacity:0;stroke:#000000;" x="354.360156" xlink:href="#mb698b572d4" y="245.079173"/>
     <use style="fill-opacity:0;stroke:#000000;" x="354.360156" xlink:href="#mb698b572d4" y="216.385755"/>
     <use style="fill-opacity:0;stroke:#000000;" x="354.360156" xlink:href="#mb698b572d4" y="228.907106"/>
     <use style="fill-opacity:0;stroke:#000000;" x="354.360156" xlink:href="#mb698b572d4" y="241.544185"/>
     <use style="fill-opacity:0;stroke:#000000;" x="354.360156" xlink:href="#mb698b572d4" y="122.332099"/>
     <use style="fill-opacity:0;stroke:#000000;" x="354.360156" xlink:href="#mb698b572d4" y="98.928905"/>
     <use style="fill-opacity:0;stroke:#000000;" x="354.360156" xlink:href="#mb698b572d4" y="100.962208"/>
     <use style="fill-opacity:0;stroke:#000000;" x="354.360156" xlink:href="#mb698b572d4" y="123.516246"/>
     <use style="fill-opacity:0;stroke:#000000;" x="354.360156" xlink:href="#mb698b572d4" y="132.615526"/>
     <use style="fill-opacity:0;stroke:#000000;" x="354.360156" xlink:href="#mb698b572d4" y="91.962387"/>
     <use style="fill-opacity:0;stroke:#000000;" x="354.360156" xlink:href="#mb698b572d4" y="117.517927"/>
     <use style="fill-opacity:0;stroke:#000000;" x="354.360156" xlink:href="#mb698b572d4" y="112.887078"/>
     <use style="fill-opacity:0;stroke:#000000;" x="354.360156" xlink:href="#mb698b572d4" y="120.244025"/>
     <use style="fill-opacity:0;stroke:#000000;" x="354.360156" xlink:href="#mb698b572d4" y="79.840248"/>
     <use style="fill-opacity:0;stroke:#000000;" x="354.360156" xlink:href="#mb698b572d4" y="75.323293"/>
     <use style="fill-opacity:0;stroke:#000000;" x="354.360156" xlink:href="#mb698b572d4" y="134.869254"/>
     <use style="fill-opacity:0;stroke:#000000;" x="354.360156" xlink:href="#mb698b572d4" y="106.998348"/>
     <use style="fill-opacity:0;stroke:#000000;" x="354.360156" xlink:href="#mb698b572d4" y="130.03463"/>
     <use style="fill-opacity:0;stroke:#000000;" x="354.360156" xlink:href="#mb698b572d4" y="130.431575"/>
     <use style="fill-opacity:0;stroke:#000000;" x="354.360156" xlink:href="#mb698b572d4" y="132.471721"/>
     <use style="fill-opacity:0;stroke:#000000;" x="354.360156" xlink:href="#mb698b572d4" y="135.109563"/>
     <use style="fill-opacity:0;stroke:#000000;" x="354.360156" xlink:href="#mb698b572d4" y="58.369524"/>
     <use style="fill-opacity:0;stroke:#000000;" x="354.360156" xlink:href="#mb698b572d4" y="24.209801"/>
     <use style="fill-opacity:0;stroke:#000000;" x="354.360156" xlink:href="#mb698b572d4" y="127.308575"/>
     <use style="fill-opacity:0;stroke:#000000;" x="354.360156" xlink:href="#mb698b572d4" y="124.502117"/>
     <use style="fill-opacity:0;stroke:#000000;" x="354.360156" xlink:href="#mb698b572d4" y="68.16055"/>
     <use style="fill-opacity:0;stroke:#000000;" x="354.360156" xlink:href="#mb698b572d4" y="110.832503"/>
     <use style="fill-opacity:0;stroke:#000000;" x="354.360156" xlink:href="#mb698b572d4" y="91.416258"/>
     <use style="fill-opacity:0;stroke:#000000;" x="354.360156" xlink:href="#mb698b572d4" y="128.786389"/>
     <use style="fill-opacity:0;stroke:#000000;" x="354.360156" xlink:href="#mb698b572d4" y="135.317259"/>
     <use style="fill-opacity:0;stroke:#000000;" x="354.360156" xlink:href="#mb698b572d4" y="125.124594"/>
     <use style="fill-opacity:0;stroke:#000000;" x="354.360156" xlink:href="#mb698b572d4" y="109.339312"/>
     <use style="fill-opacity:0;stroke:#000000;" x="354.360156" xlink:href="#mb698b572d4" y="129.656447"/>
     <use style="fill-opacity:0;stroke:#000000;" x="354.360156" xlink:href="#mb698b572d4" y="134.208187"/>
     <use style="fill-opacity:0;stroke:#000000;" x="354.360156" xlink:href="#mb698b572d4" y="125.464669"/>
     <use style="fill-opacity:0;stroke:#000000;" x="354.360156" xlink:href="#mb698b572d4" y="124.883029"/>
     <use style="fill-opacity:0;stroke:#000000;" x="354.360156" xlink:href="#mb698b572d4" y="123.35289"/>
     <use style="fill-opacity:0;stroke:#000000;" x="354.360156" xlink:href="#mb698b572d4" y="74.027291"/>
     <use style="fill-opacity:0;stroke:#000000;" x="354.360156" xlink:href="#mb698b572d4" y="93.506958"/>
     <use style="fill-opacity:0;stroke:#000000;" x="354.360156" xlink:href="#mb698b572d4" y="130.874745"/>
     <use style="fill-opacity:0;stroke:#000000;" x="354.360156" xlink:href="#mb698b572d4" y="134.71756"/>
     <use style="fill-opacity:0;stroke:#000000;" x="354.360156" xlink:href="#mb698b572d4" y="121.954606"/>
    </g>
   </g>
   <g id="line2d_35">
    <path clip-path="url(#p1721447ff6)" d="M 148.734492 190.505016 
L 177.426445 190.505016 
" style="fill:none;stroke:#ff7f0e;stroke-linecap:square;"/>
   </g>
   <g id="line2d_36">
    <path clip-path="url(#p1721447ff6)" d="M 340.01418 172.813754 
L 368.706133 172.813754 
" style="fill:none;stroke:#ff7f0e;stroke-linecap:square;"/>
   </g>
   <g id="patch_3">
    <path d="M 67.440625 305.815625 
L 67.440625 10.8 
" style="fill:none;stroke:#000000;stroke-linecap:square;stroke-linejoin:miter;stroke-width:0.8;"/>
   </g>
   <g id="patch_4">
    <path d="M 450 305.815625 
L 450 10.8 
" style="fill:none;stroke:#000000;stroke-linecap:square;stroke-linejoin:miter;stroke-width:0.8;"/>
   </g>
   <g id="patch_5">
    <path d="M 67.440625 305.815625 
L 450 305.815625 
" style="fill:none;stroke:#000000;stroke-linecap:square;stroke-linejoin:miter;stroke-width:0.8;"/>
   </g>
   <g id="patch_6">
    <path d="M 67.440625 10.8 
L 450 10.8 
" style="fill:none;stroke:#000000;stroke-linecap:square;stroke-linejoin:miter;stroke-width:0.8;"/>
   </g>
   <g id="text_13">
    <!-- 6.446 -->
    <defs>
     <path d="M 12.5 10 
Q 14.796875 10 16.4375 8.296875 
Q 18.09375 6.59375 18.09375 4.296875 
Q 18.09375 2.09375 16.390625 0.5 
Q 14.703125 -1.09375 12.40625 -1.09375 
Q 10.203125 -1.09375 8.59375 0.5 
Q 7 2.09375 7 4.296875 
Q 7 6.59375 8.640625 8.296875 
Q 10.296875 10 12.5 10 
z
" id="FreeSerif-46"/>
    </defs>
    <g transform="translate(103.734492 195.164391)scale(0.2 -0.2)">
     <use xlink:href="#FreeSerif-54"/>
     <use x="49.999985" xlink:href="#FreeSerif-46"/>
     <use x="74.999969" xlink:href="#FreeSerif-52"/>
     <use x="124.999954" xlink:href="#FreeSerif-52"/>
     <use x="174.999939" xlink:href="#FreeSerif-54"/>
    </g>
   </g>
   <g id="text_14">
    <!-- 7.517 -->
    <defs>
     <path d="M 44.90625 66.203125 
L 44.90625 64.59375 
L 23.703125 -0.796875 
L 17.203125 -0.796875 
L 37 58.796875 
L 15.296875 58.796875 
Q 11.203125 58.796875 9.046875 57.296875 
Q 6.90625 55.796875 3.703125 50.703125 
L 2 51.5 
L 7.90625 66.203125 
z
" id="FreeSerif-55"/>
    </defs>
    <g transform="translate(295.01418 177.473129)scale(0.2 -0.2)">
     <use xlink:href="#FreeSerif-55"/>
     <use x="49.999985" xlink:href="#FreeSerif-46"/>
     <use x="74.999969" xlink:href="#FreeSerif-53"/>
     <use x="124.999954" xlink:href="#FreeSerif-49"/>
     <use x="174.999939" xlink:href="#FreeSerif-55"/>
    </g>
   </g>
   <g id="text_15">
    <!-- 5.905 -->
    <defs>
     <path d="M 5.90625 -2.203125 
L 5.59375 -0.203125 
Q 17 1.796875 24.953125 9.5 
Q 32.90625 17.203125 36 29.40625 
Q 28.59375 23.703125 21 23.703125 
Q 12.90625 23.703125 7.953125 29.296875 
Q 3 34.90625 3 44 
Q 3 54.09375 8.953125 60.84375 
Q 14.90625 67.59375 23.796875 67.59375 
Q 33.5 67.59375 39.703125 59.6875 
Q 45.90625 51.796875 45.90625 39.40625 
Q 45.90625 35.40625 45.203125 31.203125 
Q 44.5 27 41.953125 21.25 
Q 39.40625 15.5 35.296875 10.953125 
Q 31.203125 6.40625 23.59375 2.703125 
Q 16 -1 5.90625 -2.203125 
z
M 24.59375 28 
Q 26.5 28 28.890625 28.546875 
Q 31.296875 29.09375 33.75 30.9375 
Q 36.203125 32.796875 36.203125 35.5 
L 36.203125 39.40625 
Q 36.203125 64.796875 23 64.796875 
Q 19.90625 64.796875 17.703125 63.140625 
Q 15.5 61.5 14.34375 58.796875 
Q 13.203125 56.09375 12.703125 53.296875 
Q 12.203125 50.5 12.203125 47.40625 
Q 12.203125 38.5 15.546875 33.25 
Q 18.90625 28 24.59375 28 
z
" id="FreeSerif-57"/>
    </defs>
    <g transform="translate(177.426445 213.10344)scale(0.2 -0.2)">
     <use xlink:href="#FreeSerif-53"/>
     <use x="49.999985" xlink:href="#FreeSerif-46"/>
     <use x="74.999969" xlink:href="#FreeSerif-57"/>
     <use x="124.999954" xlink:href="#FreeSerif-48"/>
     <use x="174.999939" xlink:href="#FreeSerif-53"/>
    </g>
   </g>
   <g id="text_16">
    <!-- 6.943 -->
    <defs>
     <path d="M 8.09375 7.796875 
Q 10.40625 7.796875 14.953125 5 
Q 19.5 2.203125 22.90625 2.203125 
Q 28.40625 2.203125 32.203125 6.5 
Q 36 10.796875 36 17.09375 
Q 36 21 34.640625 24 
Q 33.296875 27 31.1875 28.640625 
Q 29.09375 30.296875 26.1875 31.34375 
Q 23.296875 32.40625 20.75 32.703125 
Q 18.203125 33 15.296875 33 
L 15.296875 34.296875 
Q 18.703125 35.5 21.140625 36.640625 
Q 23.59375 37.796875 26.296875 39.75 
Q 29 41.703125 30.453125 44.5 
Q 31.90625 47.296875 31.90625 50.90625 
Q 31.90625 55.59375 28.84375 58.59375 
Q 25.796875 61.59375 20.90625 61.59375 
Q 16.203125 61.59375 12.640625 59.046875 
Q 9.09375 56.5 6 51 
L 4.5 51.40625 
Q 7.09375 58.5 11.546875 63.046875 
Q 16 67.59375 24.203125 67.59375 
Q 31.09375 67.59375 35.4375 63.796875 
Q 39.796875 60 39.796875 53.90625 
Q 39.796875 49.796875 37.6875 46.6875 
Q 35.59375 43.59375 30.40625 40.09375 
Q 36.40625 37.5 39.796875 33.453125 
Q 43.203125 29.40625 43.203125 21.90625 
Q 43.203125 11.296875 35.34375 4.9375 
Q 27.5 -1.40625 15.59375 -1.40625 
Q 10.40625 -1.40625 7.34375 0.140625 
Q 4.296875 1.703125 4.296875 4.296875 
Q 4.296875 5.90625 5.34375 6.84375 
Q 6.40625 7.796875 8.09375 7.796875 
z
" id="FreeSerif-51"/>
    </defs>
    <g transform="translate(177.426445 177.949982)scale(0.2 -0.2)">
     <use xlink:href="#FreeSerif-54"/>
     <use x="49.999985" xlink:href="#FreeSerif-46"/>
     <use x="74.999969" xlink:href="#FreeSerif-57"/>
     <use x="124.999954" xlink:href="#FreeSerif-52"/>
     <use x="174.999939" xlink:href="#FreeSerif-51"/>
    </g>
   </g>
   <g id="text_17">
    <!-- 6.968 -->
    <g transform="translate(368.706133 195.53697)scale(0.2 -0.2)">
     <use xlink:href="#FreeSerif-54"/>
     <use x="49.999985" xlink:href="#FreeSerif-46"/>
     <use x="74.999969" xlink:href="#FreeSerif-57"/>
     <use x="124.999954" xlink:href="#FreeSerif-54"/>
     <use x="174.999939" xlink:href="#FreeSerif-56"/>
    </g>
   </g>
   <g id="text_18">
    <!-- 8.083 -->
    <g transform="translate(368.706133 159.112634)scale(0.2 -0.2)">
     <use xlink:href="#FreeSerif-56"/>
     <use x="49.999985" xlink:href="#FreeSerif-46"/>
     <use x="74.999969" xlink:href="#FreeSerif-48"/>
     <use x="124.999954" xlink:href="#FreeSerif-56"/>
     <use x="174.999939" xlink:href="#FreeSerif-51"/>
    </g>
   </g>
   <g id="text_19">
    <!-- 4.356 -->
    <g transform="translate(110.90748 229.687663)scale(0.2 -0.2)">
     <use xlink:href="#FreeSerif-52"/>
     <use x="49.999985" xlink:href="#FreeSerif-46"/>
     <use x="74.999969" xlink:href="#FreeSerif-51"/>
     <use x="124.999954" xlink:href="#FreeSerif-53"/>
     <use x="174.999939" xlink:href="#FreeSerif-54"/>
    </g>
   </g>
   <g id="text_20">
    <!-- 8.478 -->
    <g transform="translate(110.90748 161.583026)scale(0.2 -0.2)">
     <use xlink:href="#FreeSerif-56"/>
     <use x="49.999985" xlink:href="#FreeSerif-46"/>
     <use x="74.999969" xlink:href="#FreeSerif-52"/>
     <use x="124.999954" xlink:href="#FreeSerif-55"/>
     <use x="174.999939" xlink:href="#FreeSerif-56"/>
    </g>
   </g>
   <g id="text_21">
    <!-- 5.296 -->
    <g transform="translate(302.187168 214.155399)scale(0.2 -0.2)">
     <use xlink:href="#FreeSerif-53"/>
     <use x="49.999985" xlink:href="#FreeSerif-46"/>
     <use x="74.999969" xlink:href="#FreeSerif-50"/>
     <use x="124.999954" xlink:href="#FreeSerif-57"/>
     <use x="174.999939" xlink:href="#FreeSerif-54"/>
    </g>
   </g>
   <g id="text_22">
    <!-- 9.717 -->
    <g transform="translate(302.187168 141.117848)scale(0.2 -0.2)">
     <use xlink:href="#FreeSerif-57"/>
     <use x="49.999985" xlink:href="#FreeSerif-46"/>
     <use x="74.999969" xlink:href="#FreeSerif-55"/>
     <use x="124.999954" xlink:href="#FreeSerif-49"/>
     <use x="174.999939" xlink:href="#FreeSerif-55"/>
    </g>
   </g>
  </g>
 </g>
 <defs>
  <clipPath id="p1721447ff6">
   <rect height="295.015625" width="382.559375" x="67.440625" y="10.8"/>
  </clipPath>
 </defs>
</svg>
